<?xml version="1.0" encoding="utf-8"?>
<!-- Generator: Adobe Illustrator 15.1.0, SVG Export Plug-In . SVG Version: 6.00 Build 0)  -->
<!DOCTYPE svg PUBLIC "-//W3C//DTD SVG 1.1//EN" "http://www.w3.org/Graphics/SVG/1.1/DTD/svg11.dtd">
<svg version="1.1" id="Layer_1" xmlns="http://www.w3.org/2000/svg" xmlns:xlink="http://www.w3.org/1999/xlink" x="0px" y="0px"
	 width="50px" height="50px" viewBox="0 0 50 50" enable-background="new 0 0 50 50" xml:space="preserve">
<path fill="#FFFFFF" d="M28.328,27l6.261-6.261c0.253-0.252,0.253-0.661,0-0.913l-1.914-1.915c-0.253-0.252-0.661-0.252-0.914,0
	L25.5,24.172l-6.261-6.261c-0.252-0.252-0.661-0.252-0.913,0l-1.915,1.915c-0.252,0.252-0.252,0.661,0,0.913L22.672,27l-6.261,6.261
	c-0.252,0.252-0.252,0.66,0,0.913l1.915,1.915c0.121,0.121,0.285,0.189,0.457,0.189s0.335-0.068,0.457-0.189l6.261-6.261
	l6.261,6.261c0.252,0.253,0.66,0.253,0.913,0.001l1.915-1.915c0.121-0.121,0.189-0.286,0.189-0.457s-0.068-0.336-0.189-0.457
	L28.328,27z"/>
</svg>
