<?xml version="1.0" encoding="utf-8"?>
<!-- Generator: Adobe Illustrator 15.1.0, SVG Export Plug-In . SVG Version: 6.00 Build 0)  -->
<!DOCTYPE svg PUBLIC "-//W3C//DTD SVG 1.1//EN" "http://www.w3.org/Graphics/SVG/1.1/DTD/svg11.dtd">
<svg version="1.1" id="Layer_1" xmlns="http://www.w3.org/2000/svg" xmlns:xlink="http://www.w3.org/1999/xlink" x="0px" y="0px"
	 width="20.25px" height="20.25px" viewBox="0 29.75 20.25 20.25" enable-background="new 0 29.75 20.25 20.25"
	 xml:space="preserve">
<path fill="#FFFFFF" d="M13.106,39.722l6.261-6.261c0.253-0.252,0.253-0.661,0-0.913l-1.914-1.915c-0.253-0.252-0.661-0.252-0.913,0
	l-6.262,6.261l-6.261-6.261c-0.252-0.252-0.661-0.252-0.913,0l-1.915,1.915c-0.252,0.252-0.252,0.661,0,0.913l6.261,6.261
	l-6.261,6.261c-0.252,0.253-0.252,0.66,0,0.913l1.915,1.915c0.121,0.121,0.285,0.188,0.457,0.188c0.172,0,0.335-0.067,0.457-0.188
	l6.261-6.261l6.261,6.261c0.252,0.253,0.66,0.253,0.913,0.001l1.915-1.915c0.121-0.12,0.189-0.286,0.189-0.457
	s-0.068-0.336-0.189-0.457L13.106,39.722z"/>
</svg>
