<?xml version="1.0" encoding="utf-8"?>
<!-- Generator: Adobe Illustrator 15.1.0, SVG Export Plug-In . SVG Version: 6.00 Build 0)  -->
<!DOCTYPE svg PUBLIC "-//W3C//DTD SVG 1.1//EN" "http://www.w3.org/Graphics/SVG/1.1/DTD/svg11.dtd">
<svg version="1.1" id="Layer_1" xmlns="http://www.w3.org/2000/svg" xmlns:xlink="http://www.w3.org/1999/xlink" x="0px" y="0px"
	 width="287.667px" height="71.667px" viewBox="0 0 287.667 71.667" enable-background="new 0 0 287.667 71.667"
	 xml:space="preserve">
<g>
	<g>
		<path fill="#E36644" d="M29.81,68.166c-0.087,0.278-0.339,0.475-0.631,0.487c-0.292,0.015-0.562-0.155-0.675-0.425
			c-0.678-1.611-1-4.117-0.549-5.943c0.816-3.311,5.119-11.227,22.129-16.992c10.948-3.709,17.226-8.979,16.51-13.756
			c-0.9-6.02-11.627-12.752-24.635-12.752c-15.121,0-28.977,8.271-30.808,15.387c-1.291,5.014,3.715,8.976,8.142,11.417
			l-0.015,0.027c-0.972,1.762-2.705,2.975-4.693,3.282c-1.989,0.31-4.008-0.321-5.468-1.708c-6.016-5.705-5.853-11.471-4.99-14.826
			C7.034,21.069,24.358,11.53,41.959,11.53c15.978,0,30.247,8.493,31.809,18.931c0.771,5.159-1.003,14.75-21.561,21.042
			C38.883,55.58,31.625,62.341,29.81,68.166z"/>
	</g>
</g>
<g>
	<g>
		<path fill="#E36644" d="M22.806,50.142L37.529,39h-4.737c-1.285,0-2.103-1.131-2.412-2.146c-0.265-0.873-0.058-2.502,1.009-3.214
			l14.88-9.959c0.727-0.488,1.617-0.659,2.476-0.49s1.614,0.677,2.102,1.404L34.121,35.804L40.61,35.8
			c1.583-0.072,2.17,0.756,2.394,1.473c0.161,0.516,0.381,1.79-1.035,2.768C41.969,40.039,35.702,44.105,22.806,50.142z"/>
	</g>
</g>
<g>
	<path fill="#E36644" d="M102.107,16.936c8.633,0,11.826,3.548,11.826,10.998v20.222c0,0-0.827,0.473-2.897,0.473
		c-1.833,0-3.015-0.473-3.015-0.473l-1.124-3.193c-1.36,2.779-4.375,4.26-8.633,4.26c-5.617,0-9.165-3.312-9.165-10.229
		c0-6.683,4.199-9.403,11.53-9.403c2.069,0,4.139,0.119,5.854,0.296v-1.301c0-2.956-1.065-5.38-5.321-5.38
		c-3.903,0-7.569,1.419-7.569,1.419s-0.946-0.591-1.656-2.188c-0.709-1.596-0.473-3.134-0.473-3.134S95.84,16.936,102.107,16.936z
		 M101.576,34.556c-3.015,0-4.79,1.242-4.79,4.436c0,3.369,1.597,4.553,4.258,4.553c4.139,0,5.439-3.844,5.439-6.978v-1.774
		C105.006,34.675,103.29,34.556,101.576,34.556z"/>
	<path fill="#E36644" d="M131.673,16.936c6.326,0,8.691,1.715,8.691,1.715c0,1.892-0.591,4.021-1.893,5.262
		c0,0-2.779-0.946-6.031-0.946c-3.429,0-5.085,1.183-5.085,3.311c0,2.542,3.784,2.957,7.509,4.258
		c3.548,1.241,7.037,3.311,7.037,8.87c0,6.268-3.844,9.815-11.589,9.815c-6.445,0-10.229-2.248-10.229-2.248
		c0-2.188,0.65-4.198,2.011-5.499c0,0,3.843,1.419,7.864,1.419c3.193,0,4.613-1.123,4.613-3.312c0-2.543-2.897-3.193-6.09-4.141
		c-3.903-1.183-8.22-2.838-8.22-8.928C120.26,20.779,123.926,16.936,131.673,16.936z"/>
	<path fill="#E36644" d="M164.548,18c0,0,1.537-0.473,3.726-0.473c2.011,0,3.666,0.473,3.666,0.473l-8.633,13.895l9.993,16.261
		c0,0-1.715,0.532-4.139,0.532c-2.483,0-4.021-0.532-4.021-0.532l-8.041-13.009h-1.773v13.009c0,0-1.479,0.473-3.666,0.473
		c-2.307,0-3.785-0.473-3.785-0.473V4.637c0,0,1.537-0.355,3.785-0.355c1.95,0,3.666,0.355,3.666,0.355v25.011h1.891L164.548,18z"/>
	<path fill="#E36644" d="M201.681,48.333c0,0-0.77,0.295-2.129,0.295c-1.477,0-2.129-0.295-2.129-0.295V26.633
		c0-4.08-2.129-6.149-6.387-6.149c-3.25,0-6.502,2.01-8.277,5.38v22.469c0,0-0.709,0.295-2.127,0.295
		c-1.479,0-2.129-0.295-2.129-0.295V17.822c0,0,0.649-0.295,2.129-0.295c1.418,0,2.127,0.295,2.127,0.295v3.725
		c2.307-2.897,5.677-4.612,9.816-4.612c5.793,0,9.104,3.548,9.104,8.869L201.681,48.333L201.681,48.333z"/>
	<path fill="#E36644" d="M222.257,16.936c7.924,0,12.654,4.435,12.654,16.142c0,11.707-4.73,16.143-12.654,16.143
		c-7.922,0-12.653-4.435-12.653-16.143C209.604,21.37,214.335,16.936,222.257,16.936z M222.257,20.306
		c-5.086,0-8.277,2.898-8.277,12.772c0,9.875,3.191,12.772,8.277,12.772c5.084,0,8.279-2.897,8.279-12.772
		C230.537,23.204,227.343,20.306,222.257,20.306z"/>
	<path fill="#E36644" d="M263.707,30.181c-1.358-4.553-1.715-6.8-1.772-7.864h-0.179c-0.117,1.064-0.473,3.37-1.95,7.864
		l-5.735,18.152c-0.531,0.117-1.3,0.295-2.248,0.295c-1.004,0-1.771-0.178-2.363-0.295l-9.461-30.512c0,0,0.709-0.295,2.129-0.295
		c1.479,0,1.951,0.295,1.951,0.295l6.504,20.696c0.828,2.778,1.062,4.612,1.183,5.38h0.177c0.118-0.77,0.414-2.661,1.301-5.38
		l6.504-20.696c0,0,0.947-0.295,2.248-0.295c1.418,0,2.129,0.295,2.129,0.295l6.385,20.577c0.888,2.838,1.064,4.729,1.185,5.499
		h0.179c0.116-0.77,0.475-2.543,1.358-5.439l6.444-20.635c0,0,0.709-0.295,1.951-0.295c1.358,0,1.893,0.295,1.893,0.295
		l-9.461,30.51c-0.648,0.117-1.359,0.295-2.307,0.295c-0.944,0-1.656-0.178-2.307-0.295L263.707,30.181z"/>
</g>
</svg>
