<?xml version="1.0" encoding="utf-8"?>
<!-- Generator: Adobe Illustrator 15.1.0, SVG Export Plug-In . SVG Version: 6.00 Build 0)  -->
<!DOCTYPE svg PUBLIC "-//W3C//DTD SVG 1.1//EN" "http://www.w3.org/Graphics/SVG/1.1/DTD/svg11.dtd">
<svg version="1.1" id="Layer_1" xmlns="http://www.w3.org/2000/svg" xmlns:xlink="http://www.w3.org/1999/xlink" x="0px" y="0px"
	 width="81.333px" height="71.667px" viewBox="0 0 81.333 71.667" enable-background="new 0 0 81.333 71.667" xml:space="preserve">
<g>
	<g>
		<path fill="#E36644" d="M31.81,66.166c-0.087,0.278-0.339,0.476-0.631,0.487c-0.292,0.015-0.562-0.155-0.675-0.425
			c-0.678-1.611-1-4.117-0.549-5.943c0.816-3.311,5.119-11.227,22.129-16.992c10.947-3.709,17.226-8.979,16.51-13.755
			c-0.9-6.02-11.627-12.752-24.635-12.752c-15.123,0-28.979,8.271-30.81,15.387c-1.291,5.014,3.715,8.976,8.142,11.417l-0.015,0.027
			c-0.972,1.762-2.705,2.975-4.693,3.281c-1.989,0.311-4.008-0.32-5.468-1.708C5.1,39.485,5.263,33.719,6.126,30.364
			C9.034,19.069,26.358,9.53,43.959,9.53c15.978,0,30.246,8.493,31.809,18.931c0.771,5.159-1.003,14.75-21.561,21.042
			C40.883,53.58,33.625,60.341,31.81,66.166z"/>
	</g>
</g>
<g>
	<g>
		<path fill="#E36644" d="M24.806,48.142L39.529,37h-4.737c-1.285,0-2.103-1.129-2.412-2.146c-0.265-0.873-0.058-2.502,1.009-3.214
			l14.88-9.959c0.728-0.488,1.617-0.659,2.476-0.49c0.859,0.169,1.614,0.677,2.104,1.404L36.121,33.804L42.61,33.8
			c1.583-0.072,2.17,0.756,2.395,1.473c0.16,0.516,0.382,1.79-1.034,2.768C43.969,38.039,37.702,42.105,24.806,48.142z"/>
	</g>
</g>
</svg>
