<?xml version="1.0" encoding="utf-8"?>
<!-- Generator: Adobe Illustrator 15.1.0, SVG Export Plug-In . SVG Version: 6.00 Build 0)  -->
<!DOCTYPE svg PUBLIC "-//W3C//DTD SVG 1.1//EN" "http://www.w3.org/Graphics/SVG/1.1/DTD/svg11.dtd">
<svg version="1.1" id="Layer_1" xmlns="http://www.w3.org/2000/svg" xmlns:xlink="http://www.w3.org/1999/xlink" x="0px" y="0px"
	 width="50px" height="50px" viewBox="0 0 50 50" enable-background="new 0 0 50 50" xml:space="preserve">
<path fill="#FFFFFF" d="M37,28.354C37,28.711,36.711,29,36.354,29H14.646C14.289,29,14,28.711,14,28.354v-2.709
	C14,25.289,14.289,25,14.646,25h21.709C36.711,25,37,25.289,37,25.646V28.354z"/>
<path fill="#FFFFFF" d="M37,18.354C37,18.711,36.711,19,36.354,19H14.646C14.289,19,14,18.711,14,18.354v-2.709
	C14,15.289,14.289,15,14.646,15h21.709C36.711,15,37,15.289,37,15.646V18.354z"/>
<path fill="#FFFFFF" d="M37,37.354C37,37.711,36.711,38,36.354,38H14.646C14.289,38,14,37.711,14,37.354v-2.709
	C14,34.289,14.289,34,14.646,34h21.709C36.711,34,37,34.289,37,34.646V37.354z"/>
</svg>
